<svg width="40" height="82" viewBox="0 0 40 82" fill="none" xmlns="http://www.w3.org/2000/svg">
<circle cx="20" cy="20" r="20" fill="#E0002B"/>
<g clip-path="url(#clip0_11_17)">
<path d="M12 25V27C12 27.5304 12.2107 28.0391 12.5858 28.4142C12.9609 28.7893 13.4696 29 14 29H26C26.5304 29 27.0391 28.7893 27.4142 28.4142C27.7893 28.0391 28 27.5304 28 27V25" stroke="white" stroke-width="2" stroke-linecap="round" stroke-linejoin="round"/>
<path d="M15 19L20 24L25 19" stroke="white" stroke-width="2" stroke-linecap="round" stroke-linejoin="round"/>
<path d="M20 12V24" stroke="white" stroke-width="2" stroke-linecap="round" stroke-linejoin="round"/>
</g>
<circle cx="20" cy="62" r="20" fill="#111111"/>
<g clip-path="url(#clip1_11_17)">
<path d="M12 67V69C12 69.5304 12.2107 70.0391 12.5858 70.4142C12.9609 70.7893 13.4696 71 14 71H26C26.5304 71 27.0391 70.7893 27.4142 70.4142C27.7893 70.0391 28 69.5304 28 69V67" stroke="white" stroke-width="2" stroke-linecap="round" stroke-linejoin="round"/>
<path d="M15 61L20 66L25 61" stroke="white" stroke-width="2" stroke-linecap="round" stroke-linejoin="round"/>
<path d="M20 54V66" stroke="white" stroke-width="2" stroke-linecap="round" stroke-linejoin="round"/>
</g>
<defs>
<clipPath id="clip0_11_17">
<rect width="24" height="24" fill="white" transform="translate(8 8)"/>
</clipPath>
<clipPath id="clip1_11_17">
<rect width="24" height="24" fill="white" transform="translate(8 50)"/>
</clipPath>
</defs>
</svg>
