<svg width="40" height="40" viewBox="0 0 40 40" fill="none" xmlns="http://www.w3.org/2000/svg">
<path d="M30.3691 31.0334C30.7596 31.4239 31.3928 31.4239 31.7833 31.0334C32.1739 30.6429 32.1739 30.0097 31.7833 29.6192L30.3691 31.0334ZM24.3587 10.8809C27.8734 14.3956 27.8734 20.0941 24.3587 23.6088L25.7729 25.023C30.0687 20.7272 30.0687 13.7624 25.7729 9.46664L24.3587 10.8809ZM24.3587 23.6088C20.844 27.1235 15.1455 27.1235 11.6308 23.6088L10.2166 25.023C14.5123 29.3188 21.4772 29.3188 25.7729 25.023L24.3587 23.6088ZM11.6308 23.6088C8.11607 20.0941 8.11607 14.3956 11.6308 10.8809L10.2166 9.46664C5.92081 13.7624 5.92081 20.7272 10.2166 25.023L11.6308 23.6088ZM11.6308 10.8809C15.1455 7.36613 20.844 7.36613 24.3587 10.8809L25.7729 9.46664C21.4772 5.17087 14.5123 5.17087 10.2166 9.46664L11.6308 10.8809ZM31.7833 29.6192L25.4194 23.2552L24.0052 24.6694L30.3691 31.0334L31.7833 29.6192Z" fill="#B91C1C"/>
</svg>
