<svg width="128" height="54" viewBox="0 0 128 54" fill="none" xmlns="http://www.w3.org/2000/svg">
<path d="M9.31142 36.3443C7.55133 35.5211 6.10352 34.854 6.10352 33.509C6.10352 32.48 6.92679 31.7348 8.55203 31.7348C9.14818 31.7348 9.63789 31.8022 10.1453 31.898C10.4079 31.9406 10.6918 31.9796 10.926 31.9796C12.3454 31.9796 13.1439 31.1351 13.6797 29.5276L13.8997 28.8711C13.6761 28.7788 11.3554 27.7568 8.33202 27.7568C3.52017 27.7568 0.979402 30.8441 0.979402 34.0449C0.979402 35.6595 1.48685 36.8305 2.27817 37.7531C3.29661 38.9383 4.75152 39.7119 6.11062 40.3791C8.09071 41.3514 9.87919 42.0682 9.87919 43.5124C9.87919 44.7864 8.55912 45.5174 6.79194 45.5174C4.37182 45.5174 2.25688 44.1334 1.98719 43.9631L0 47.6891C0.351307 47.8914 2.91337 49.5166 7.12551 49.5166C11.6144 49.5166 15.014 46.9403 15.014 42.9802C15.014 39.02 11.8628 37.5792 9.31142 36.3443Z" fill="white"/>
<path d="M26.8694 38.1825L35.0133 28.1968H29.2114L22.714 36.8127H22.6182V28.1968H17.8348V49.3498H18.1186C20.1875 49.3498 22.6501 48.3917 22.6501 44.9389V40.0845H22.746L29.364 49.0907H35.4498L26.8623 38.186" fill="white"/>
<path d="M35.2867 5.53575C33.6011 5.85512 31.1029 7.38455 31.1136 10.085C31.1207 12.5406 33.1256 14.0275 33.1327 17.2424C33.1434 19.6661 31.8091 21.2913 30.3684 22.1962C30.9503 22.143 31.5891 22.1111 32.2917 22.1111C33.7643 22.104 34.6515 22.253 34.7083 22.2566L42.2631 12.9842C40.1659 9.84725 37.7139 7.40939 35.2867 5.53575Z" fill="white"/>
<path d="M41.632 30.5744C42.583 29.0946 42.7037 26.7348 42.7817 24.3289C42.8704 22.0898 43.3389 20.4007 46.3409 20.3936C47.001 20.3936 47.6362 20.4823 48.7859 20.4787C53.179 20.4574 56.0463 18.9457 57.8276 17.9522C54.1833 15.6278 48.864 13.2574 42.2636 12.9877C41.8343 14.2049 38.488 23.5092 38.2325 24.2544C38.2715 24.3005 38.8606 24.9535 39.588 26.2345C40.6668 27.9946 41.2488 29.485 41.632 30.5744Z" fill="white"/>
<path d="M25.6771 22.9734C25.2938 22.9769 25.1022 22.7214 25.0525 22.2814C25.0064 21.8449 23.115 4.55991 22.8347 1.94462C22.7921 1.56492 22.6998 0.862308 22.6998 0.613909C22.6963 0.209373 22.9589 8.23472e-06 23.2676 8.23472e-06C24.1619 -0.00354032 29.0376 1.1391 34.2185 4.76927C32.7245 5.188 30.0276 6.73872 30.0383 9.95017C30.0489 12.7926 32.0858 14.361 32.0929 17.2105C32.1106 21.8485 26.7771 22.9698 25.6735 22.9734" fill="white"/>
<path d="M42.3272 31.2806C42.4088 31.4935 42.4833 31.6709 42.5578 31.7951C42.6785 31.9938 42.8275 32.0825 43.0156 32.0825C43.1327 32.0825 43.2782 32.0435 43.4379 31.9654C43.8318 31.788 59.3425 24.5631 61.6881 23.4879C62.0252 23.3282 62.6711 23.0337 62.8804 22.9131C63.104 22.7889 63.2034 22.6043 63.2034 22.4198C63.2034 22.3169 63.1714 22.2104 63.1146 22.1146C62.8201 21.6427 61.3226 20.0494 58.8102 18.3106C56.8159 19.4071 53.7039 21.1033 49.0801 21.121C47.9445 21.121 47.6891 21.0465 46.9119 21.0501C44.6515 21.0607 44.0873 22.0259 44.0056 24.0096C43.9915 24.3822 43.9844 24.8861 43.9631 25.4325C43.8921 27.2033 43.6863 29.6482 42.3307 31.2806" fill="white"/>
<path d="M49.9849 40.1094C50.3398 39.6977 50.7691 39.3535 51.2695 39.0732C51.7698 38.7928 52.3589 38.6544 53.0296 38.6544C53.8209 38.6544 54.4774 38.8248 55.0061 39.169C55.5348 39.5132 55.9358 39.9142 56.2126 40.372C56.4859 40.8297 56.6881 41.3478 56.8194 41.9191C56.9507 42.494 57.0146 43.1327 57.0146 43.8389C57.0146 44.5983 56.9223 45.308 56.7413 45.9574C56.5604 46.6103 56.2907 47.1745 55.9323 47.6536C55.5739 48.1362 55.1339 48.5123 54.6051 48.782C54.0764 49.0553 53.466 49.1901 52.7705 49.1901C52.2027 49.1901 51.6953 49.1085 51.2517 48.9488C50.8082 48.7891 50.4001 48.5372 50.0239 48.193C50.0381 48.5691 50.0452 48.9098 50.0488 49.2114C50.0488 49.513 50.0523 49.8182 50.0523 50.1269V52.8345H47.437V38.878H49.9813V40.1023L49.9849 40.1094ZM50.0559 46.3761C50.6662 46.9723 51.383 47.2739 52.2063 47.2739C52.877 47.2739 53.4022 46.99 53.7819 46.4222C54.158 45.8545 54.3461 44.9957 54.3461 43.8424C54.3461 42.6892 54.1722 41.9227 53.8209 41.3833C53.4696 40.8404 52.9692 40.5707 52.3163 40.5707C51.8976 40.5707 51.5001 40.6984 51.124 40.9468C50.7443 41.1988 50.3894 41.5607 50.0523 42.0327V46.3761H50.0559Z" fill="white"/>
<path d="M61.5533 37.196H58.938V34.971H61.5533V37.196ZM61.5533 48.9595H58.938V38.8851H61.5533V48.9595Z" fill="white"/>
<path d="M68.5333 49.1936C67.7455 49.1936 67.0393 49.0765 66.4183 48.8423C65.7973 48.6081 65.2686 48.2675 64.8357 47.8133C64.4063 47.3626 64.0727 46.809 63.8385 46.1561C63.6043 45.5031 63.4872 44.7615 63.4872 43.924C63.4872 43.0866 63.6043 42.3414 63.8385 41.6849C64.0727 41.032 64.4063 40.4784 64.8357 40.0277C65.2686 39.5771 65.7938 39.2364 66.4183 39.0022C67.0393 38.768 67.7455 38.6509 68.5333 38.6509C69.1294 38.6509 69.6794 38.7254 70.1833 38.878C70.6872 39.027 71.1273 39.2541 71.5034 39.5522C71.8831 39.8503 72.1883 40.2158 72.4189 40.6523C72.6531 41.0887 72.7986 41.5891 72.8625 42.1604H70.4317C70.3643 41.6743 70.1621 41.2839 69.8249 40.9965C69.4878 40.709 69.0549 40.5636 68.5297 40.5636C68.1713 40.5636 67.8484 40.631 67.5574 40.7658C67.2664 40.9007 67.0145 41.1029 66.8051 41.3762C66.5957 41.6494 66.4325 41.9972 66.319 42.423C66.2054 42.8453 66.1486 43.3456 66.1486 43.9205C66.1486 44.4954 66.2054 44.9851 66.319 45.4038C66.4325 45.8225 66.5922 46.1703 66.8051 46.4435C67.0145 46.7203 67.2629 46.9226 67.5574 47.061C67.8484 47.1994 68.1749 47.2668 68.5297 47.2668C68.7817 47.2668 69.0194 47.2277 69.2465 47.1568C69.4701 47.0858 69.6652 46.9793 69.832 46.8374C69.9988 46.699 70.1372 46.5287 70.2366 46.3335C70.3395 46.1383 70.4034 45.9183 70.4317 45.6699H72.8625C72.7844 46.2271 72.6318 46.7203 72.3976 47.1568C72.1634 47.5932 71.8583 47.9623 71.4857 48.2639C71.1131 48.5656 70.673 48.7962 70.1727 48.9523C69.6723 49.112 69.1223 49.1866 68.5262 49.1866L68.5333 49.1936Z" fill="white"/>
<path d="M83.4374 48.2817C83.4374 49.9069 83.04 51.1063 82.2416 51.8835C81.4467 52.6606 80.2402 53.0474 78.6291 53.0474C77.8946 53.0474 77.2558 52.9693 76.7058 52.8203C76.1558 52.6677 75.7016 52.4548 75.3432 52.1709C74.9848 51.8906 74.7115 51.557 74.5305 51.1738C74.3496 50.7905 74.2573 50.3611 74.2573 49.8892H76.7661C76.8087 50.3824 76.9755 50.7515 77.2665 50.9963C77.5575 51.2412 78.033 51.3618 78.693 51.3618C79.1472 51.3618 79.5127 51.2909 79.8002 51.1454C80.084 50.9999 80.3041 50.7976 80.4637 50.5386C80.6234 50.2795 80.7299 49.9601 80.7902 49.5876C80.847 49.2114 80.8754 48.7927 80.8754 48.3349V47.6749C80.0308 48.6365 79.055 49.1156 77.9407 49.1156C77.2878 49.1156 76.7129 49.002 76.2126 48.7714C75.7122 48.5407 75.2864 48.2072 74.9422 47.7707C74.5944 47.3342 74.3318 46.8019 74.1544 46.1632C73.977 45.528 73.8883 44.8076 73.8883 43.9986C73.8883 43.2463 73.9805 42.5401 74.1686 41.8907C74.3531 41.2378 74.6228 40.6771 74.9777 40.1981C75.329 39.7226 75.769 39.3464 76.2977 39.0696C76.8265 38.7964 77.4368 38.658 78.1288 38.658C78.6859 38.658 79.1898 38.7361 79.644 38.8957C80.0947 39.0519 80.5205 39.3038 80.9109 39.6445V38.8851H83.4445V48.2817H83.4374ZM80.8328 41.4968C80.2153 40.8794 79.5021 40.5707 78.693 40.5707C78.033 40.5707 77.5113 40.8474 77.1281 41.401C76.7413 41.9546 76.5532 42.8204 76.5532 43.9986C76.5532 45.0418 76.7236 45.8367 77.0607 46.3761C77.4013 46.919 77.9052 47.1887 78.5688 47.1887C78.9875 47.1887 79.385 47.0645 79.7576 46.8126C80.1302 46.5642 80.4921 46.2022 80.8328 45.7267V41.4968Z" fill="white"/>
<path d="M88.5613 48.9595H85.946V35.0349H88.5613V48.9595Z" fill="white"/>
<path d="M95.5375 38.6544C96.2969 38.6544 96.9889 38.768 97.6063 38.9951C98.2238 39.2222 98.749 39.5593 99.1855 40.0029C99.6219 40.45 99.959 41 100.193 41.6565C100.431 42.313 100.548 43.0689 100.548 43.9276C100.548 44.7864 100.431 45.5316 100.193 46.188C99.9555 46.841 99.6184 47.391 99.1855 47.8381C98.749 48.2852 98.2238 48.6223 97.6063 48.853C96.9889 49.0837 96.2969 49.1972 95.5375 49.1972C94.7782 49.1972 94.0755 49.0837 93.451 48.853C92.83 48.6223 92.3013 48.2852 91.8648 47.8381C91.4319 47.391 91.0912 46.841 90.8534 46.188C90.6121 45.5316 90.4915 44.7793 90.4915 43.9276C90.4915 43.076 90.6121 42.313 90.8534 41.6565C91.0947 41.0036 91.4319 40.45 91.8648 40.0029C92.3013 39.5593 92.83 39.2222 93.451 38.9951C94.072 38.768 94.7675 38.6544 95.5375 38.6544ZM95.5375 47.2704C95.8853 47.2704 96.2082 47.1994 96.4992 47.0645C96.7902 46.9261 97.0386 46.7203 97.2444 46.4471C97.4502 46.1738 97.6063 45.8261 97.7199 45.4074C97.8264 44.9886 97.8831 44.4954 97.8831 43.9241C97.8831 43.3527 97.8264 42.8595 97.7199 42.4372C97.6099 42.0149 97.4502 41.6672 97.2444 41.3904C97.0386 41.1171 96.7902 40.9113 96.4992 40.7729C96.2082 40.6345 95.8853 40.5671 95.5375 40.5671C95.1898 40.5671 94.8456 40.6381 94.5546 40.7729C94.2636 40.9113 94.0152 41.1171 93.8094 41.3904C93.6036 41.6672 93.4439 42.0149 93.3303 42.4372C93.2168 42.8595 93.16 43.3563 93.16 43.9241C93.16 44.4918 93.2168 44.9886 93.3303 45.4074C93.4439 45.8261 93.6036 46.1738 93.8094 46.4471C94.0152 46.7239 94.2636 46.9261 94.5546 47.0645C94.8456 47.2029 95.1756 47.2704 95.5375 47.2704Z" fill="white"/>
<path d="M105.091 38.0796C105.091 38.4025 105.084 38.7361 105.076 39.0838C105.066 39.4316 105.062 39.7652 105.062 40.0881C105.456 39.6339 105.9 39.2826 106.407 39.0342C106.911 38.7822 107.45 38.658 108.029 38.658C108.682 38.658 109.257 38.7787 109.764 39.02C110.268 39.2613 110.69 39.6019 111.024 40.049C111.357 40.4962 111.616 41.0391 111.79 41.6743C111.964 42.313 112.053 43.0369 112.053 43.846C112.053 44.6551 111.957 45.379 111.766 46.039C111.574 46.699 111.294 47.2597 110.932 47.7246C110.57 48.193 110.123 48.5549 109.594 48.8104C109.065 49.0695 108.472 49.1972 107.812 49.1972C107.241 49.1972 106.734 49.1121 106.279 48.9453C105.825 48.7785 105.406 48.523 105.023 48.1788V48.963H102.482V35.0385H105.098V38.0867L105.091 38.0796ZM105.091 46.3726C105.701 46.9687 106.418 47.2704 107.241 47.2704C107.912 47.2704 108.437 46.9865 108.817 46.4187C109.193 45.8509 109.381 44.9922 109.381 43.8389C109.381 42.6856 109.207 41.9191 108.856 41.3798C108.508 40.8368 108.008 40.5671 107.355 40.5671C106.936 40.5671 106.538 40.6949 106.159 40.9433C105.783 41.1952 105.424 41.5572 105.087 42.0291V46.3726H105.091Z" fill="white"/>
<path d="M120.332 48.0333C119.888 48.4272 119.381 48.7182 118.82 48.9098C118.256 49.1014 117.621 49.1972 116.907 49.1972C116.414 49.1972 115.953 49.1333 115.527 49.0091C115.101 48.8814 114.732 48.6969 114.42 48.4485C114.107 48.2001 113.859 47.8949 113.678 47.5258C113.497 47.1568 113.405 46.7345 113.405 46.2555C113.405 43.9241 115.417 42.7566 119.437 42.7566H120.314C120.314 42.2278 120.296 41.841 120.261 41.5926C120.225 41.4294 120.179 41.2768 120.119 41.142C120.055 41.0036 119.966 40.8829 119.849 40.7836C119.725 40.6061 119.53 40.4784 119.264 40.3968C118.997 40.3187 118.674 40.2761 118.295 40.2761C117.617 40.2761 117.102 40.4003 116.755 40.6523C116.41 40.9007 116.212 41.2733 116.166 41.7665H113.82C113.958 39.6942 115.481 38.658 118.391 38.658C119.097 38.658 119.721 38.7148 120.261 38.8212C120.8 38.9312 121.283 39.1299 121.716 39.4103C122.12 39.6693 122.422 40.0384 122.62 40.5103C122.819 40.9823 122.919 41.6281 122.919 42.4443V48.9595H120.335V48.0333H120.332ZM120.314 44.3179H119.303C118.22 44.3179 117.408 44.4563 116.875 44.7331C116.339 45.0099 116.07 45.4641 116.07 46.0993C116.07 46.5713 116.233 46.9226 116.556 47.1532C116.879 47.3839 117.308 47.4975 117.844 47.4975C118.089 47.4975 118.334 47.4691 118.575 47.4087C118.816 47.352 119.04 47.2739 119.253 47.171C119.466 47.0716 119.664 46.9474 119.845 46.8019C120.026 46.6529 120.186 46.4897 120.314 46.3158V44.3179Z" fill="white"/>
<path d="M128 48.9595H125.385V35.0349H128V48.9595Z" fill="white"/>
</svg>
